<svg width="314" height="365" viewBox="0 0 314 365" fill="none" xmlns="http://www.w3.org/2000/svg">
<g style="mix-blend-mode:soft-light" opacity="0.5">
<path d="M-13 143.07H93.3C93.3 143.07 85.7 119.77 72.9 123.17C60.1 126.47 60.6 129.37 60.6 129.37C60.6 129.37 56.8 109.47 39.7 112.27C22.6 115.07 18.8 128.87 18.8 128.87C18.8 128.87 7.90001 124.57 3.10001 128.87C-1.59999 133.17 -0.699982 135.47 -0.699982 135.47C-0.699982 135.47 -11.1 130.77 -13 143.07Z" fill="white"/>
</g>
<g style="mix-blend-mode:soft-light" opacity="0.8">
<path d="M268 100.216C266.8 96.8161 264.1 90.9161 259.9 89.5161C253.9 87.5161 245 94.1161 245 94.1161C245 94.1161 240.7 78.6161 226.3 78.0161C211.9 77.4161 214.5 93.8161 214.5 93.8161C214.5 93.8161 210.8 92.7161 203.3 90.4161C195.8 88.1161 193.2 95.0161 193.2 95.0161C188.5 93.3161 186.6 97.8161 186 100.216H268Z" fill="white"/>
</g>
<path d="M44.7 0C44.7 0 44.5 2.6 42 2.9C44.5 3.2 44.7 5.8 44.7 5.8C44.7 5.8 44.9 3.2 47.4 2.9C44.9 2.7 44.7 0 44.7 0Z" fill="#FFD08A"/>
<path d="M178.7 41C178.7 41 178.5 43.6 176 43.9C178.5 44.2 178.7 46.8 178.7 46.8C178.7 46.8 178.9 44.2 181.4 43.9C178.9 43.7 178.7 41 178.7 41Z" fill="#FFD08A"/>
<path d="M80.7 31C80.7 31 80.5 33.6 78 33.9C80.5 34.2 80.7 36.8 80.7 36.8C80.7 36.8 80.9 34.2 83.4 33.9C80.9 33.7 80.7 31 80.7 31Z" fill="#FFD08A"/>
<path d="M300.7 100C300.7 100 300.5 102.6 298 102.9C300.5 103.2 300.7 105.8 300.7 105.8C300.7 105.8 300.9 103.2 303.4 102.9C300.8 102.7 300.7 100 300.7 100Z" fill="#FFD08A"/>
<path d="M184.3 159.6C184.3 159.6 184.1 162.2 181.6 162.5C184.1 162.8 184.3 165.4 184.3 165.4C184.3 165.4 184.5 162.8 187 162.5C184.4 162.3 184.3 159.6 184.3 159.6Z" fill="#FFD08A"/>
<path d="M140.1 70C140.1 70 139.6 77 133 77.6C139.6 78.3 140.1 85.2 140.1 85.2C140.1 85.2 140.6 78.2 147.2 77.6C140.6 77 140.1 70 140.1 70Z" fill="#FFD08A"/>
<path d="M16.1 58.7C16.1 58.7 15.6 65.7 9 66.3C15.6 67 16.1 73.9 16.1 73.9C16.1 73.9 16.6 66.9 23.2 66.3C16.6 65.7 16.1 58.7 16.1 58.7Z" fill="#FFD08A"/>
<path d="M133.2 0C133.2 0 132.8 5.1 128 5.6C132.8 6.1 133.2 11.2 133.2 11.2C133.2 11.2 133.6 6.1 138.4 5.6C133.6 5 133.2 0 133.2 0Z" fill="#FFD08A"/>
<path d="M59.6 95C59.6 95 59.3 99.5 55 100C59.3 100.4 59.6 105 59.6 105C59.6 105 59.9 100.5 64.2 100C60 99.5 59.6 95 59.6 95Z" fill="#FFD08A"/>
<path d="M100.5 194.9C100.5 194.9 100.2 199.4 95.9 199.9C100.2 200.3 100.5 204.9 100.5 204.9C100.5 204.9 100.8 200.4 105.1 199.9C100.8 199.4 100.5 194.9 100.5 194.9Z" fill="#FFD08A"/>
<g style="mix-blend-mode:soft-light" opacity="0.5">
<path d="M238.8 168.5H345.1C345.1 168.5 337.5 145.2 324.7 148.6C311.9 151.9 312.4 154.8 312.4 154.8C312.4 154.8 308.6 134.9 291.5 137.7C274.4 140.5 270.6 154.3 270.6 154.3C270.6 154.3 259.7 150 254.9 154.3C250.2 158.6 251.1 160.9 251.1 160.9C251.1 160.9 240.7 156.2 238.8 168.5Z" fill="white"/>
</g>
<path opacity="0.25" d="M159.9 364.8C229.433 364.8 285.8 351.682 285.8 335.5C285.8 319.318 229.433 306.2 159.9 306.2C90.3674 306.2 34 319.318 34 335.5C34 351.682 90.3674 364.8 159.9 364.8Z" fill="#042030"/>
<path d="M258.5 194.1L159.9 227.8L61.2 194.1L14 262.7L159.9 312.6L305.7 262.7L258.5 194.1Z" fill="#4E2999"/>
<path opacity="0.45" d="M31.2 259.9L152.2 306.2L110.6 265C110.6 265 42.3 248.5 31.2 259.9Z" fill="#240F4F"/>
<path opacity="0.45" d="M288.6 259.9L167.6 306.2L209.2 265C209.1 265 277.4 248.5 288.6 259.9Z" fill="#240F4F"/>
<path d="M159.9 312.6L14 262.7V269.2L159.9 319.1L305.7 269.2V262.7L159.9 312.6Z" fill="#994EF8"/>
<path d="M82.2 342.6L99.1 298.3L153.5 316.9L82.2 342.6Z" fill="#3B1E77"/>
<path opacity="0.45" d="M86.9 329.8L153.5 316.9L99.1 298.3L86.9 329.8Z" fill="#3B1E77"/>
<path d="M159.9 314.6L82.2 342.6L88 348.7L159.9 323.1L231.7 348.7L237.6 342.6L159.9 314.6Z" fill="#994EF8"/>
<path d="M237.6 342.6L220.6 298.3L166.2 316.9L237.6 342.6Z" fill="#3B1E77"/>
<path opacity="0.45" d="M232.8 329.8L166.2 316.9L220.6 298.3L232.8 329.8Z" fill="#3B1E77"/>
<path d="M159.9 323.1C162.827 323.1 165.2 320.727 165.2 317.8C165.2 314.873 162.827 312.5 159.9 312.5C156.973 312.5 154.6 314.873 154.6 317.8C154.6 320.727 156.973 323.1 159.9 323.1Z" fill="white" fill-opacity="0.5"/>
<path d="M254.3 194.1L159.9 241.1L65.5 194.1C61.2 199.8 26.6 257.5 26.6 257.5C27 257.5 27.3 257.6 27.7 257.6C114.5 266.3 138.6 293.6 146.6 300.2C154.6 306.9 160 306.2 160 306.2C160 306.2 165.4 306.9 173.4 300.2C181.4 293.6 205.5 266.3 292.3 257.6C292.7 257.6 293 257.5 293.4 257.5C293.2 257.5 258.5 199.9 254.3 194.1Z" fill="#F5B304"/>
<path d="M293.2 257.5C292.8 257.5 292.5 257.6 292.1 257.6C205.3 266.3 181.2 293.6 173.2 300.2C165.2 306.9 159.8 306.2 159.8 306.2C159.8 306.2 154.4 306.9 146.4 300.2C138.4 293.6 114.3 266.3 27.5 257.6C27.1 257.6 26.8 257.5 26.4 257.5C25.7 258.6 26.4 259.4 26.4 259.4C114.1 267.9 137.4 295.3 145.4 302C153.4 308.6 159.7 308.1 159.7 308.1C159.7 308.1 166 308.6 174 302C182 295.4 205.3 268 293 259.4C293.2 259.4 293.9 258.6 293.2 257.5Z" fill="#994EF8"/>
<path d="M250.7 188.6C202.4 177 159.8 216.7 159.8 216.7C159.8 216.7 117.2 177 68.9 188.6C68.9 188.6 55.2 209.6 36.3 245.3C36.3 245.3 131.4 256 159.8 295.9C188.2 256 283.3 245.3 283.3 245.3C264.4 209.6 250.7 188.6 250.7 188.6Z" fill="#F5EFFB"/>
<path d="M283.3 245.3C283.3 245.3 188.2 256 159.8 295.9C131.5 256 36.4 245.3 36.4 245.3C36.4 245.3 36.4 248.5 31.1 254.8C31.1 254.8 117.4 261 148.8 296.8C156.2 305.2 159.8 304.2 159.8 304.2C159.8 304.2 163.5 305.2 170.8 296.8C202.1 261 288.5 254.8 288.5 254.8C283.3 248.4 283.3 245.3 283.3 245.3Z" fill="#DFCBF4"/>
<path d="M245.3 192.8C245.3 192.8 209.2 183.6 159.8 221.9C110.5 183.7 74.3 192.8 74.3 192.8L49.9 240.2C124.1 245.3 159.8 282.8 159.8 282.8C159.8 282.8 195.5 245.3 269.7 240.2L245.3 192.8ZM159.9 278.3C159.9 278.3 126.5 244.1 55.7 237.4L76.2 194.8C76.2 194.8 111.7 187.9 159.9 224.1C208.1 187.9 243.6 194.8 243.6 194.8L264.1 237.4C193.3 244.1 159.9 278.3 159.9 278.3Z" fill="#863ED5"/>
<path opacity="0.2" d="M169 257.594C182.333 247.76 224 226 252 229" stroke="#863ED5" stroke-width="3" stroke-linecap="round"/>
<path opacity="0.2" d="M169 230C180.833 220.735 211.6 202.581 240 204.088" stroke="#863ED5" stroke-width="3" stroke-linecap="round"/>
<path opacity="0.2" d="M169 244C181.833 234.022 215.2 214.472 246 216.095" stroke="#863ED5" stroke-width="3" stroke-linecap="round"/>
<path opacity="0.2" d="M152 257.594C138.667 247.76 97 226 69 229" stroke="#863ED5" stroke-width="3" stroke-linecap="round"/>
<path opacity="0.2" d="M152 230C140.167 220.735 109.4 202.581 81 204.088" stroke="#863ED5" stroke-width="3" stroke-linecap="round"/>
<path opacity="0.2" d="M152 244C139.167 234.022 105.8 214.472 75 216.095" stroke="#863ED5" stroke-width="3" stroke-linecap="round"/>
<path d="M159.9 216.7C159.9 216.7 160.9 213.2 162.8 214.2C162.8 214.2 161.6 270.9 163.6 293C164.1 298.5 168.9 306 170.8 308.8H168.3L167.6 311.1C167.6 311.1 160.2 298.6 159.9 293.7C158.4 271.7 159.2 222 159.9 216.7Z" fill="#54DAF5"/>
</svg>
